<?xml version='1.0' encoding='iso-8859-1'?>
<!DOCTYPE svg PUBLIC '-//W3C//DTD SVG 1.1//EN' 'http://www.w3.org/Graphics/SVG/1.1/DTD/svg11.dtd'>
<!-- Uploaded to: SVG Repo, www.svgrepo.com, Generator: SVG Repo Mixer Tools -->
<svg stroke="currentColor" fill="currentColor" height="800px" width="800px" version="1.1" xmlns="http://www.w3.org/2000/svg" viewBox="0 0 455.232 455.232" xmlns:xlink="http://www.w3.org/1999/xlink" enable-background="new 0 0 455.232 455.232">
  <path d="m455.095,128.525c-0.819-5.505-5.181-9.805-10.697-10.547l-331.167-44.543v-23.854c0-6.904-5.597-12.5-12.5-12.5h-88.231c-6.903,0-12.5,5.596-12.5,12.5v47.594c0,18.145 14.762,32.906 32.906,32.906h47.419c17.648,0 32.092-13.966 32.869-31.426l285.035,38.338-137.332,62.873h-41.123c-6.903,0-12.5,5.596-12.5,12.5v29.665h-15.61c-6.903,0-12.5,5.596-12.5,12.5v43.249h-8.595c-6.903,0-12.5,5.596-12.5,12.5v46.462h-20.828v-131.603c0-6.904-5.597-12.5-12.5-12.5h-90.07c-5.487,0-10.333,3.579-11.947,8.823l-22.171,72.047c-0.366,1.191-0.553,2.43-0.553,3.677v72.056c0,6.904 5.597,12.5 12.5,12.5h32.792c2.284,20.453 19.671,36.409 40.723,36.409s38.44-15.957 40.724-36.409h95.699c2.284,20.453 19.672,36.409 40.724,36.409 11.061,0 21.105-4.412 28.486-11.559 7.381,7.147 17.425,11.559 28.486,11.559 21.053,0 38.442-15.958 40.725-36.411h5.439c6.903,0 12.5-5.596 12.5-12.5v-58.96c0-6.904-5.597-12.5-12.5-12.5h-55.149v-25.38c0-1.059-0.135-2.114-0.4-3.14l-15.011-57.849 152.197-69.679c5.061-2.318 7.98-7.702 7.16-13.207zm-366.864-31.35c0,4.36-3.547,7.906-7.906,7.906h-47.419c-4.359,0-7.906-3.547-7.906-7.906v-35.094h63.231v35.094zm-44.329,140.464h18.095v47.045h-32.571l14.476-47.045zm-18.902,72.045h49.497c6.903,0 12.5-5.596 12.5-12.5v-59.545h25.244v108.058c-7.113-5.938-16.258-9.518-26.226-9.518-15.166,0-28.424,8.286-35.512,20.563h-25.503v-47.058zm61.016,83.467c-8.814,0-15.985-7.171-15.985-15.986s7.171-15.986 15.985-15.986 15.986,7.171 15.986,15.986-7.172,15.986-15.986,15.986zm177.147,0c-8.814,0-15.986-7.171-15.986-15.986s7.172-15.986 15.986-15.986 15.986,7.171 15.986,15.986-7.171,15.986-15.986,15.986zm56.972,0c-8.814,0-15.985-7.171-15.985-15.986s7.171-15.986 15.985-15.986 15.986,7.171 15.986,15.986-7.172,15.986-15.986,15.986zm33.664-39.326c-7.409-10.654-19.732-17.647-33.664-17.647-11.061,0-21.105,4.412-28.486,11.559-7.381-7.147-17.425-11.559-28.486-11.559-15.165,0-28.423,8.285-35.511,20.561h-44.583v-33.96h170.729v31.046zm-149.634-56.046v-30.749h15.61c6.903,0 12.5-5.596 12.5-12.5v-29.665h41.127l12.748,49.129v23.785h-81.985z"/>
</svg>