<?xml version="1.0" encoding="iso-8859-1"?>
<!-- Uploaded to: SVG Repo, www.svgrepo.com, Generator: SVG Repo Mixer Tools -->
<svg fill="#000000" height="800px" width="800px" version="1.1" id="Layer_1" xmlns="http://www.w3.org/2000/svg" xmlns:xlink="http://www.w3.org/1999/xlink" 
	 viewBox="0 0 512 512" xml:space="preserve">
<g>
	<g>
		<path d="M315.588,352.028L267.47,323.16c-3.868-2.32-8.888-1.066-11.209,2.804c-2.321,3.869-1.067,8.888,2.803,11.21
			l48.118,28.868c1.316,0.79,2.765,1.165,4.196,1.165c2.776,0,5.482-1.415,7.013-3.969
			C320.712,359.368,319.457,354.35,315.588,352.028z"/>
	</g>
</g>
<g>
	<g>
		<path d="M411.812,352.027L363.7,323.16c-3.868-2.32-8.888-1.066-11.21,2.803c-2.321,3.869-1.066,8.887,2.803,11.21l48.113,28.868
			c1.316,0.79,2.765,1.165,4.196,1.165c2.776,0,5.482-1.415,7.013-3.969C416.937,359.367,415.682,354.35,411.812,352.027z"/>
	</g>
</g>
<g>
	<g>
		<path d="M366.503,255.792c-2.323-3.872-7.342-5.125-11.208-2.802l-48.112,28.868c-3.869,2.321-5.124,7.339-2.802,11.208
			c1.531,2.553,4.237,3.967,7.012,3.967c1.43,0,2.881-0.376,4.196-1.166L363.701,267
			C367.57,264.679,368.825,259.661,366.503,255.792z"/>
	</g>
</g>
<g>
	<g>
		<path d="M462.726,255.792c-2.321-3.869-7.338-5.125-11.21-2.802l-48.111,28.868c-3.869,2.321-5.123,7.339-2.801,11.208
			c1.532,2.553,4.238,3.969,7.013,3.969c1.43,0,2.88-0.376,4.197-1.166l48.111-28.868
			C463.794,264.679,465.047,259.66,462.726,255.792z"/>
	</g>
</g>
<g>
	<g>
		<path d="M315.588,211.683l-48.118-28.868c-3.868-2.32-8.888-1.065-11.209,2.804c-2.321,3.869-1.067,8.888,2.803,11.21
			l48.118,28.868c1.316,0.79,2.765,1.165,4.196,1.165c2.776,0,5.482-1.415,7.013-3.969
			C320.712,219.023,319.457,214.004,315.588,211.683z"/>
	</g>
</g>
<g>
	<g>
		<path d="M411.813,211.683L363.7,182.814c-3.868-2.321-8.888-1.067-11.21,2.803c-2.321,3.869-1.066,8.887,2.803,11.21
			l48.113,28.868c1.316,0.79,2.765,1.164,4.196,1.164c2.776,0,5.482-1.415,7.013-3.969
			C416.937,219.024,415.682,214.005,411.813,211.683z"/>
	</g>
</g>
<g>
	<g>
		<path d="M366.503,115.445c-2.323-3.872-7.342-5.125-11.208-2.802l-48.112,28.868c-3.869,2.321-5.124,7.339-2.802,11.208
			c1.531,2.553,4.237,3.967,7.012,3.967c1.43,0,2.881-0.376,4.196-1.166l48.112-28.868
			C367.57,124.332,368.825,119.314,366.503,115.445z"/>
	</g>
</g>
<g>
	<g>
		<path d="M462.726,115.445c-2.321-3.869-7.338-5.125-11.21-2.802l-48.111,28.868c-3.869,2.321-5.123,7.339-2.801,11.208
			c1.532,2.553,4.238,3.969,7.013,3.969c1.43,0,2.88-0.376,4.197-1.166l48.111-28.868
			C463.794,124.332,465.047,119.313,462.726,115.445z"/>
	</g>
</g>
<g>
	<g>
		<path d="M315.588,71.337L267.47,42.469c-3.869-2.32-8.888-1.067-11.209,2.803c-2.321,3.869-1.067,8.888,2.803,11.21l48.118,28.868
			c1.316,0.79,2.765,1.166,4.196,1.166c2.776,0,5.482-1.415,7.013-3.969C320.712,78.677,319.457,73.658,315.588,71.337z"/>
	</g>
</g>
<g>
	<g>
		<path d="M411.813,71.337L363.7,42.469c-3.868-2.32-8.888-1.067-11.21,2.803c-2.321,3.869-1.066,8.887,2.803,11.21l48.113,28.868
			c1.316,0.79,2.765,1.165,4.196,1.165c2.776,0,5.482-1.415,7.013-3.969C416.937,78.678,415.682,73.659,411.813,71.337z"/>
	</g>
</g>
<g>
	<g>
		<path d="M503.83,0H111.66C50.09,0,0,50.09,0,111.66V400.34C0,461.91,50.09,512,111.66,512c29.513,0,56.384-11.515,76.37-30.281
			c0.507-0.378,0.971-0.824,1.386-1.325c20.897-20.304,33.904-48.686,33.904-80.054V293.489l44.151-26.488
			c3.869-2.321,5.124-7.34,2.803-11.21c-2.321-3.869-7.341-5.124-11.21-2.803l-35.744,21.444V153.142l44.151-26.488
			c3.869-2.321,5.124-7.34,2.803-11.21c-2.321-3.869-7.341-5.123-11.21-2.803l-35.744,21.444V111.66
			c0-40.302-21.465-75.683-53.561-95.319H495.66v47.572L459.924,42.47c-3.872-2.323-8.888-1.068-11.21,2.801
			c-2.323,3.869-1.068,8.888,2.801,11.21l44.144,26.489v121.29l-35.735-21.443c-3.872-2.324-8.888-1.067-11.21,2.801
			c-2.323,3.869-1.068,8.888,2.801,11.21l44.144,26.489v121.29l-35.735-21.443c-3.872-2.323-8.888-1.066-11.21,2.801
			c-2.323,3.869-1.068,8.888,2.801,11.21l44.144,26.489v28.51H247.83c-4.513,0-8.17,3.657-8.17,8.17c0,4.513,3.657,8.17,8.17,8.17
			h256c4.513,0,8.17-3.657,8.17-8.17V8.17C512,3.657,508.343,0,503.83,0z M206.979,241.663l-27.347,16.408
			c-3.869,2.323-5.124,7.34-2.802,11.21c1.532,2.555,4.238,3.969,7.013,3.969c1.43,0,2.88-0.376,4.196-1.166l18.94-11.364v121.29
			l-27.348,16.41c-3.869,2.321-5.123,7.34-2.801,11.21c1.532,2.552,4.238,3.967,7.013,3.967c1.43,0,2.88-0.376,4.197-1.166
			l18.931-11.36c-0.185,24.565-9.708,46.946-25.19,63.765l-41.855-25.113c-3.869-2.32-8.888-1.067-11.21,2.803
			c-2.321,3.869-1.066,8.887,2.803,11.21l37.635,22.581c-15.995,12.133-35.917,19.344-57.494,19.344
			c-52.56,0-95.319-42.76-95.319-95.319v-0.366l27.355-16.411c3.869-2.321,5.124-7.34,2.803-11.21
			c-2.321-3.869-7.34-5.124-11.21-2.803L16.34,380.918V259.628l27.355-16.411c3.869-2.321,5.124-7.34,2.803-11.21
			c-2.321-3.87-7.34-5.123-11.21-2.803L16.34,240.571v-70.813c19.636,32.096,55.017,53.561,95.319,53.561
			c40.302,0,75.683-21.465,95.319-53.561V241.663z M206.979,111.66c0,52.56-42.76,95.319-95.319,95.319
			c-52.56,0-95.319-42.76-95.319-95.319c0-52.56,42.76-95.319,95.319-95.319C164.219,16.34,206.979,59.1,206.979,111.66z"/>
	</g>
</g>
<g>
	<g>
		<path d="M91.812,468.59l-48.117-28.868c-3.869-2.32-8.888-1.066-11.21,2.803c-2.321,3.869-1.066,8.888,2.803,11.21l48.117,28.868
			c1.316,0.79,2.765,1.165,4.196,1.165c2.776,0,5.482-1.415,7.013-3.969C96.937,475.931,95.682,470.911,91.812,468.59z"/>
	</g>
</g>
<g>
	<g>
		<path d="M142.727,372.354c-2.321-3.872-7.343-5.125-11.208-2.802L83.407,398.42c-3.869,2.321-5.124,7.339-2.802,11.208
			c1.532,2.555,4.238,3.969,7.013,3.969c1.43,0,2.881-0.376,4.196-1.166l48.112-28.868
			C143.794,381.241,145.049,376.222,142.727,372.354z"/>
	</g>
</g>
<g>
	<g>
		<path d="M91.812,328.244l-48.117-28.868c-3.869-2.32-8.888-1.067-11.21,2.803c-2.321,3.869-1.067,8.888,2.803,11.21l48.117,28.868
			c1.316,0.79,2.766,1.166,4.196,1.166c2.776,0,5.482-1.415,7.013-3.969C96.937,335.584,95.682,330.566,91.812,328.244z"/>
	</g>
</g>
<g>
	<g>
		<path d="M188.037,328.244l-48.113-28.868c-3.868-2.32-8.888-1.067-11.209,2.804c-2.321,3.869-1.067,8.887,2.803,11.21
			l48.113,28.868c1.316,0.79,2.765,1.164,4.196,1.164c2.776,0,5.482-1.415,7.013-3.969
			C193.161,335.584,191.906,330.567,188.037,328.244z"/>
	</g>
</g>
<g>
	<g>
		<path d="M142.727,232.007c-2.321-3.872-7.343-5.127-11.208-2.802l-48.112,28.868c-3.869,2.321-5.124,7.339-2.802,11.208
			c1.531,2.553,4.237,3.967,7.012,3.967c1.43,0,2.881-0.376,4.196-1.166l48.112-28.868
			C143.795,240.894,145.05,235.876,142.727,232.007z"/>
	</g>
</g>
<g>
	<g>
		<path d="M111.66,65.362c-25.529,0-46.298,20.769-46.298,46.298c0,25.529,20.769,46.298,46.298,46.298
			c25.529,0,46.298-20.769,46.298-46.298C157.957,86.13,137.189,65.362,111.66,65.362z M111.66,141.617
			c-16.518,0-29.957-13.439-29.957-29.957c0-16.518,13.439-29.957,29.957-29.957c16.518,0,29.957,13.439,29.957,29.957
			C141.617,128.178,128.178,141.617,111.66,141.617z"/>
	</g>
</g>
<g>
	<g>
		<path d="M111.66,32.681c-14.675,0-29.01,4.065-41.458,11.758c-3.838,2.372-5.027,7.407-2.656,11.244
			c2.372,3.839,7.407,5.029,11.244,2.656c9.866-6.095,21.231-9.317,32.869-9.317c34.539,0,62.638,28.099,62.638,62.638
			c0,34.539-28.099,62.638-62.638,62.638c-34.539,0-62.638-28.099-62.638-62.638c0-11.639,3.222-23.003,9.317-32.868
			c2.373-3.838,1.183-8.874-2.656-11.244c-3.836-2.374-8.874-1.184-11.244,2.656C36.746,82.65,32.681,96.985,32.681,111.66
			c0,43.549,35.429,78.979,78.979,78.979c43.549,0,78.979-35.429,78.979-78.979C190.638,68.11,155.209,32.681,111.66,32.681z"/>
	</g>
</g>
</svg>